<svg xmlns="http://www.w3.org/2000/svg" xmlns:xlink="http://www.w3.org/1999/xlink" width="1920" zoomAndPan="magnify" viewBox="0 0 1440 809.999993" height="1080" preserveAspectRatio="xMidYMid meet" version="1.0"><defs><clipPath id="4f34374b3b"><path d="M 0 0 L 1439 0 L 1439 810 L 0 810 Z M 0 0 " clip-rule="nonzero"/></clipPath><clipPath id="47c433722e"><rect x="0" width="1440" y="0" height="810"/></clipPath><clipPath id="849010b7d3"><path d="M 744 0 L 1440 0 L 1440 810 L 744 810 Z M 744 0 " clip-rule="nonzero"/></clipPath><clipPath id="11c65c9905"><path d="M 1574.816406 -198.34375 L 2069.011719 727.5 L 1143.171875 1221.695312 L 648.976562 295.855469 Z M 1574.816406 -198.34375 " clip-rule="nonzero"/></clipPath><clipPath id="092ce3f5b8"><path d="M 1215.855469 63.609375 C 1197.84375 107.832031 1111.941406 153.753906 1065.128906 144.328125 C 1006.273438 132.476562 943.210938 140.222656 886.355469 170.570312 C 755.050781 240.660156 706.339844 403.324219 775.664062 533.199219 C 806.171875 590.351562 854.191406 631.929688 909.578125 654.863281 C 953.757812 673.160156 999.910156 759.609375 990.523438 806.5 C 978.75 865.277344 986.574219 928.320312 1017.085938 985.484375 C 1086.410156 1115.355469 1248.65625 1165.390625 1379.960938 1095.300781 C 1437.238281 1064.726562 1478.789062 1015.824219 1501.523438 959.691406 C 1519.382812 915.589844 1604.21875 870.304688 1650.8125 879.953125 C 1710.246094 892.257812 1774.308594 884.808594 1832.222656 853.890625 C 1962.394531 784.410156 2012.25 621.160156 1942.925781 491.285156 C 1912.675781 434.613281 1865.421875 393.410156 1810.824219 370.332031 C 1766.378906 351.542969 1718.773438 261.628906 1727.894531 214.246094 C 1739.042969 156.355469 1731.058594 94.371094 1700.902344 37.867188 C 1631.578125 -92.003906 1468.199219 -141.433594 1338.027344 -71.949219 C 1280.398438 -41.1875 1238.6875 7.554688 1215.855469 63.609375 Z M 1215.855469 63.609375 " clip-rule="nonzero"/></clipPath><clipPath id="894fd40ced"><path d="M 0 0 L 696 0 L 696 810 L 0 810 Z M 0 0 " clip-rule="nonzero"/></clipPath><clipPath id="5f3b7e290a"><path d="M 830.816406 -198.34375 L 1325.011719 727.5 L 399.171875 1221.695312 L -95.023438 295.855469 Z M 830.816406 -198.34375 " clip-rule="nonzero"/></clipPath><clipPath id="093c2914fe"><path d="M 471.855469 63.609375 C 453.84375 107.832031 367.941406 153.753906 321.128906 144.328125 C 262.273438 132.476562 199.210938 140.222656 142.355469 170.570312 C 11.050781 240.660156 -37.660156 403.324219 31.664062 533.199219 C 62.171875 590.351562 110.191406 631.929688 165.578125 654.863281 C 209.757812 673.160156 255.910156 759.609375 246.523438 806.5 C 234.75 865.277344 242.574219 928.320312 273.085938 985.484375 C 342.410156 1115.355469 504.65625 1165.390625 635.960938 1095.300781 C 693.238281 1064.726562 734.789062 1015.824219 757.523438 959.691406 C 775.382812 915.589844 860.21875 870.304688 906.8125 879.953125 C 966.246094 892.257812 1030.308594 884.808594 1088.222656 853.890625 C 1218.394531 784.410156 1268.25 621.160156 1198.925781 491.285156 C 1168.675781 434.613281 1121.421875 393.410156 1066.824219 370.332031 C 1022.378906 351.542969 974.773438 261.628906 983.894531 214.246094 C 995.042969 156.355469 987.058594 94.371094 956.902344 37.867188 C 887.578125 -92.003906 724.199219 -141.433594 594.027344 -71.949219 C 536.398438 -41.1875 494.6875 7.554688 471.855469 63.609375 Z M 471.855469 63.609375 " clip-rule="nonzero"/></clipPath><clipPath id="a10c248cf8"><rect x="0" width="696" y="0" height="810"/></clipPath></defs><rect x="-144" width="1728" fill="#ffffff" y="-80.999999" height="971.999992" fill-opacity="1"/><rect x="-144" width="1728" fill="#ffffff" y="-80.999999" height="971.999992" fill-opacity="1"/><g transform="matrix(1, 0, 0, 1, 0, 0.000000000000039746)"><g clip-path="url(#47c433722e)"><g clip-path="url(#4f34374b3b)"><path fill="#1b3524" d="M -21.136719 -20.550781 L 1438.375 -20.550781 L 1438.375 830.550781 L -21.136719 830.550781 Z M -21.136719 -20.550781 " fill-opacity="1" fill-rule="nonzero"/></g></g></g><g clip-path="url(#849010b7d3)"><g clip-path="url(#11c65c9905)"><g clip-path="url(#092ce3f5b8)"><g transform="matrix(1, 0, 0, 1, 744, 0.000000000000039746)"><g clip-path="url(#a10c248cf8)"><g clip-path="url(#894fd40ced)"><g clip-path="url(#5f3b7e290a)"><g clip-path="url(#093c2914fe)"><path fill="#ffffff" d="M 830.816406 -198.34375 L 1325.011719 727.5 L 399.171875 1221.695312 L -95.023438 295.855469 Z M 830.816406 -198.34375 " fill-opacity="1" fill-rule="nonzero"/></g></g></g></g></g></g></g></g></svg>